# File created by Blade
# Date/Time:  Mon Sep 22 15:50:36 2014
# Frame Rate: 120.000 fps
#------------------------------------------------------
:FULLY-SPECIFIED
:DEGREES
2608
root 2.033814 36.984239 3.710275 -1.528444 -4.654039 1.455514
RightUpLeg 9.811243 -4.164134 -3.517051
RightLeg -3.776485 -0.000000 0.000000
RightFoot -13.933743 -15.008939 15.862950
RightToeBase 14.625552 -0.000000 -0.000000
LeftUpLeg 9.842855 2.818387 1.695402
LeftLeg -3.065486 -0.000000 0.000000
LeftFoot -11.194359 14.507404 -17.974626
LeftToeBase 9.651158 -0.000000 -0.000000
Spine -2.048351 -4.042803 -3.772554
RightShoulder 3.863724 -26.363992 -8.848586
RightArm 24.713878 -26.072077 59.708373
RightForeArm 13.010218 0.000000 35.604897
RightHand 3.427299 -0.000000 -1.297384
RightHandThumb1 -24.326973 -0.000000 -32.862282
LeftShoulder -20.685508 28.161787 12.699975
LeftArm 49.352157 -63.383649 -64.268879
LeftForeArm -39.487808 -0.000000 97.996641
LeftHand -10.615130 -0.000000 16.364199
LeftHandThumb1 -26.253704 0.000000 33.147579
Head 22.471809 20.011949 16.298316
2609
root 2.039681 36.983391 3.705962 -1.550407 -4.737192 1.450673
RightUpLeg 9.830276 -4.191907 -3.534330
RightLeg -3.810230 -0.000000 0.000000
RightFoot -13.830159 -14.904815 15.762467
RightToeBase 14.522652 -0.000000 -0.000000
LeftUpLeg 9.870965 2.829621 1.684043
LeftLeg -3.066842 -0.000000 0.000000
LeftFoot -11.228047 14.570461 -17.969471
LeftToeBase 9.670718 -0.000000 -0.000000
Spine -1.902221 -3.967977 -3.640734
RightShoulder 3.820198 -26.485230 -8.816810
RightArm 24.805087 -26.199530 59.596499
RightForeArm 12.947713 0.000000 35.963865
RightHand 3.461566 -0.000000 -0.984601
RightHandThumb1 -24.326973 -0.000000 -32.862282
LeftShoulder -20.699799 28.218491 12.760555
LeftArm 49.114154 -63.521531 -64.196138
LeftForeArm -39.677652 -0.000000 97.331570
LeftHand -10.406470 -0.000000 15.747718
LeftHandThumb1 -26.253704 0.000000 33.147579
Head 22.239759 20.242838 16.088398
2610
root 2.046570 36.983425 3.701130 -1.566319 -4.815777 1.445417
RightUpLeg 9.841526 -4.219370 -3.551971
RightLeg -3.848986 -0.000000 0.000000
RightFoot -13.816968 -14.838672 15.799893
RightToeBase 14.647138 -0.000000 -0.000000
LeftUpLeg 9.891867 2.842000 1.672898
LeftLeg -3.071205 -0.000000 0.000000
LeftFoot -11.248366 14.634776 -17.971786
LeftToeBase 9.668982 -0.000000 -0.000000
Spine -1.768122 -3.916499 -3.507889
RightShoulder 3.795427 -26.577685 -8.779469
RightArm 24.880703 -26.346703 59.470292
RightForeArm 12.942416 0.000000 36.301423
RightHand 3.495047 -0.000000 -0.922362
RightHandThumb1 -24.326973 -0.000000 -32.862282
LeftShoulder -20.736424 28.313325 12.784099
LeftArm 49.422006 -63.762694 -64.768378
LeftForeArm -39.994476 -0.000000 96.724031
LeftHand -10.177088 -0.000000 15.038693
LeftHandThumb1 -26.253704 0.000000 33.147579
Head 22.012696 20.472708 15.874047
2611
root 2.054280 36.983269 3.696091 -1.569749 -4.897740 1.436501
RightUpLeg 9.844196 -4.208880 -3.561974
RightLeg -3.890505 -0.000000 0.000000
RightFoot -13.759444 -14.776384 15.795856
RightToeBase 14.617149 -0.000000 -0.000000
LeftUpLeg 9.904143 2.853297 1.661456
LeftLeg -3.077238 -0.000000 0.000000
LeftFoot -11.230648 14.696603 -17.898474
LeftToeBase 9.547145 -0.000000 -0.000000
Spine -1.655720 -3.859948 -3.360529
RightShoulder 3.745175 -26.667070 -8.732943
RightArm 24.991360 -26.538849 59.304539
RightForeArm 12.885031 -0.000000 36.610528
RightHand 3.532540 0.000000 -1.078604
RightHandThumb1 -24.326973 -0.000000 -32.862282
LeftShoulder -20.685446 28.338020 12.827998
LeftArm 49.835331 -64.145522 -65.558915
LeftForeArm -40.462444 -0.000000 96.216302
LeftHand -10.071853 -0.000000 14.466409
LeftHandThumb1 -26.253704 0.000000 33.147579
Head 21.828956 20.706530 15.678259
2612
root 2.063022 36.984132 3.690096 -1.562818 -4.981002 1.430696
RightUpLeg 9.824669 -4.189035 -3.573433
RightLeg -3.916410 -0.000000 0.000000
RightFoot -13.709769 -14.720541 15.795752
RightToeBase 14.644248 -0.000000 -0.000000
LeftUpLeg 9.905759 2.874525 1.648965
LeftLeg -3.094020 -0.000000 0.000000
LeftFoot -11.284162 14.748076 -17.988256
LeftToeBase 9.644038 -0.000000 -0.000000
Spine -1.548421 -3.824449 -3.212618
RightShoulder 3.703433 -26.739248 -8.679243
RightArm 25.148317 -26.791953 59.073937
RightForeArm 12.949125 -0.000000 36.840977
RightHand 3.511825 -0.000000 -0.822948
RightHandThumb1 -24.326973 -0.000000 -32.862282
LeftShoulder -20.669072 28.289122 12.861366
LeftArm 50.548522 -64.542165 -66.755689
LeftForeArm -40.825026 -0.000000 95.819005
LeftHand -9.991058 -0.000000 13.933398
LeftHandThumb1 -26.253704 0.000000 33.147579
Head 21.662834 20.958272 15.502439
2613
root 2.072300 36.984539 3.683511 -1.551833 -5.065054 1.426162
RightUpLeg 9.799781 -4.124426 -3.582305
RightLeg -3.940850 -0.000000 0.000000
RightFoot -13.676324 -14.702267 15.811021
RightToeBase 14.639076 -0.000000 -0.000000
LeftUpLeg 9.902000 2.919829 1.636174
LeftLeg -3.107759 -0.000000 0.000000
LeftFoot -11.303662 14.786775 -18.007500
LeftToeBase 9.693957 -0.000000 -0.000000
Spine -1.447958 -3.796449 -3.069390
RightShoulder 3.661891 -26.808048 -8.626282
RightArm 25.308089 -27.005232 58.865466
RightForeArm 12.837281 0.000000 37.051919
RightHand 3.590563 -0.000000 -0.946606
RightHandThumb1 -24.326973 -0.000000 -32.862282
LeftShoulder -20.686667 28.237563 12.885591
LeftArm 51.711726 -64.946502 -68.466120
LeftForeArm -40.940841 -0.000000 95.501189
LeftHand -9.952872 -0.000000 13.611298
LeftHandThumb1 -26.253704 0.000000 33.147579
Head 21.522343 21.251489 15.359516
2614
root 2.080274 36.985258 3.676950 -1.534442 -5.137024 1.418102
RightUpLeg 9.776113 -4.034176 -3.577112
RightLeg -3.979193 -0.000000 0.000000
RightFoot -13.627111 -14.744784 15.788353
RightToeBase 14.623176 -0.000000 -0.000000
LeftUpLeg 9.890656 2.970940 1.630859
LeftLeg -3.123186 -0.000000 0.000000
LeftFoot -11.298293 14.811845 -17.993779
LeftToeBase 9.680803 -0.000000 -0.000000
Spine -1.356575 -3.810124 -2.921579
RightShoulder 3.655688 -26.867110 -8.569530
RightArm 25.446373 -27.205022 58.674763
RightForeArm 12.729951 -0.000000 37.237031
RightHand 3.550808 0.000000 -0.759843
RightHandThumb1 -24.326973 -0.000000 -32.862282
LeftShoulder -20.730277 28.164294 12.841150
LeftArm 53.134316 -65.424441 -70.435959
LeftForeArm -41.059756 -0.000000 95.279964
LeftHand -10.002396 0.000000 13.502386
LeftHandThumb1 -26.253704 0.000000 33.147579
Head 21.393576 21.549593 15.220024
2615
root 2.090046 36.985745 3.671472 -1.504004 -5.193047 1.420205
RightUpLeg 9.742816 -3.980689 -3.590666
RightLeg -4.014202 -0.000000 0.000000
RightFoot -13.588936 -14.742811 15.805435
RightToeBase 14.616334 -0.000000 -0.000000
LeftUpLeg 9.867696 3.034831 1.616921
LeftLeg -3.142145 -0.000000 0.000000
LeftFoot -11.278403 14.797922 -17.985032
LeftToeBase 9.657804 -0.000000 -0.000000
Spine -1.288529 -3.842112 -2.778320
RightShoulder 3.637428 -26.886248 -8.506778
RightArm 25.560145 -27.416196 58.505472
RightForeArm 12.632345 0.000000 37.375943
RightHand 3.521441 0.000000 -0.669620
RightHandThumb1 -24.326973 -0.000000 -32.862282
LeftShoulder -20.874757 28.338287 12.686872
LeftArm 55.656143 -65.899770 -73.527529
LeftForeArm -40.823318 -0.000000 95.114854
LeftHand -10.075305 -0.000000 13.326878
LeftHandThumb1 -26.253704 0.000000 33.147579
Head 21.290564 21.843140 15.088191
2616
root 2.101634 36.986655 3.662830 -1.431731 -5.251264 1.426726
RightUpLeg 9.652001 -3.917716 -3.605252
RightLeg -4.031221 -0.000000 0.000000
RightFoot -13.565330 -14.757768 15.797992
RightToeBase 14.635291 -0.000000 -0.000000
LeftUpLeg 9.788516 3.105979 1.592241
LeftLeg -3.144746 -0.000000 0.000000
LeftFoot -11.270899 14.790561 -17.973397
LeftToeBase 9.668970 -0.000000 -0.000000
Spine -1.271717 -3.932153 -2.622531
RightShoulder 3.650895 -26.908065 -8.482326
RightArm 25.705678 -27.660216 58.328392
RightForeArm 12.595029 -0.000000 37.478485
RightHand 3.496381 -0.000000 -0.515881
RightHandThumb1 -24.326973 -0.000000 -32.862282
LeftShoulder -21.075896 28.292187 12.548286
LeftArm 57.967294 -66.247898 -76.453545
LeftForeArm -40.453768 -0.000000 95.009775
LeftHand -10.051082 0.000000 13.287887
LeftHandThumb1 -26.253704 0.000000 33.147579
Head 21.225146 22.240693 14.943237
2617
root 2.112538 36.987074 3.657254 -1.387236 -5.287212 1.431285
RightUpLeg 9.596193 -3.886626 -3.621388
RightLeg -4.042574 -0.000000 0.000000
RightFoot -13.546424 -14.756592 15.801980
RightToeBase 14.632173 -0.000000 -0.000000
LeftUpLeg 9.750923 3.161083 1.571635
LeftLeg -3.168703 -0.000000 0.000000
LeftFoot -11.246900 14.781942 -17.943010
LeftToeBase 9.656981 -0.000000 -0.000000
Spine -1.234976 -4.013427 -2.472820
RightShoulder 3.642265 -26.947065 -8.442078
RightArm 25.880439 -27.839531 58.188695
RightForeArm 12.526406 -0.000000 37.486558
RightHand 3.607398 -0.000000 -0.579557
RightHandThumb1 -24.326973 -0.000000 -32.862282
LeftShoulder -21.168862 28.148438 12.524635
LeftArm 60.137791 -66.567089 -79.379565
LeftForeArm -39.961797 -0.000000 95.021015
LeftHand -10.226804 -0.000000 13.456641
LeftHandThumb1 -26.253704 0.000000 33.147579
Head 21.172490 22.511227 14.801614
2618
root 2.121402 36.987679 3.657981 -1.363126 -5.355555 1.443673
RightUpLeg 9.584353 -3.773229 -3.637477
RightLeg -4.093534 -0.000000 0.000000
RightFoot -13.525659 -14.810740 15.817455
RightToeBase 14.647500 -0.000000 -0.000000
LeftUpLeg 9.768096 3.287757 1.557164
LeftLeg -3.238746 -0.000000 0.000000
LeftFoot -11.202226 14.723661 -17.960022
LeftToeBase 9.681596 -0.000000 -0.000000
Spine -1.198983 -4.020907 -2.356036
RightShoulder 3.579872 -26.940406 -8.342164
RightArm 25.995906 -28.067566 58.040774
RightForeArm 12.466950 -0.000000 37.488472
RightHand 3.546029 -0.000000 -0.345255
RightHandThumb1 -24.326973 -0.000000 -32.862282
LeftShoulder -21.240963 28.086072 12.517815
LeftArm 62.760192 -66.849661 -82.779985
LeftForeArm -39.253723 -0.000000 95.068553
LeftHand -10.298907 0.000000 13.503238
LeftHandThumb1 -26.253704 0.000000 33.147579
Head 21.149457 22.717523 14.708655
2619
root 2.136276 36.987921 3.652350 -1.286488 -5.383284 1.458241
RightUpLeg 9.507989 -3.684309 -3.658977
RightLeg -4.132621 -0.000000 0.000000
RightFoot -13.514241 -14.876117 15.846608
RightToeBase 14.669471 -0.000000 -0.000000
LeftUpLeg 9.699055 3.345744 1.522120
LeftLeg -3.270064 -0.000000 0.000000
LeftFoot -11.175396 14.696682 -17.951868
LeftToeBase 9.701204 -0.000000 -0.000000
Spine -1.220216 -4.074533 -2.195359
RightShoulder 3.515883 -26.987316 -8.315200
RightArm 26.154662 -28.252971 57.943250
RightForeArm 12.314898 -0.000000 37.464117
RightHand 3.577188 -0.000000 -0.320404
RightHandThumb1 -24.326973 -0.000000 -32.862282
LeftShoulder -21.334477 28.088017 12.419146
LeftArm 65.656126 -67.093451 -86.444026
LeftForeArm -38.413141 0.000000 95.157951
LeftHand -10.461616 -0.000000 13.522261
LeftHandThumb1 -26.253704 0.000000 33.147579
Head 21.167504 22.986081 14.603472
2620
root 2.153150 36.987588 3.644761 -1.188123 -5.379231 1.488671
RightUpLeg 9.427079 -3.604206 -3.696220
RightLeg -4.202697 -0.000000 0.000000
RightFoot -13.483633 -14.974729 15.843895
RightToeBase 14.627117 -0.000000 -0.000000
LeftUpLeg 9.593701 3.358376 1.460214
LeftLeg -3.294443 -0.000000 0.000000
LeftFoot -11.144051 14.706647 -17.931499
LeftToeBase 9.663464 -0.000000 -0.000000
Spine -1.278765 -4.195429 -2.047172
RightShoulder 3.501277 -26.986291 -8.306695
RightArm 26.310949 -28.458713 57.861959
RightForeArm 12.298777 -0.000000 37.345432
RightHand 3.397648 -0.000000 0.087709
RightHandThumb1 -24.326973 -0.000000 -32.862282
LeftShoulder -21.411294 28.030802 12.352610
LeftArm 68.349430 -67.318908 -89.944709
LeftForeArm -37.607499 -0.000000 95.284120
LeftHand -10.594510 0.000000 13.607061
LeftHandThumb1 -26.253704 0.000000 33.147579
Head 21.236014 23.309945 14.502348
